<svg version="1.1" xmlns="http://www.w3.org/2000/svg" viewBox="0 0 2306.8774779078085 1601.4850728445185" width="2306.8774779078085" height="1601.4850728445185" filter="invert(93%) hue-rotate(180deg)">
  <!-- svg-source:excalidraw -->
  
  <defs>
    <style class="style-fonts">
      @font-face {
        font-family: "Virgil";
        src: url("https://excalidraw.com/Virgil.woff2");
      }
      @font-face {
        font-family: "Cascadia";
        src: url("https://excalidraw.com/Cascadia.woff2");
      }
    </style>
  </defs>
  <rect x="0" y="0" width="2306.8774779078085" height="1601.4850728445185" fill="#ffffff"></rect><g stroke-linecap="round" transform="translate(556 10) rotate(0 92.5 26)"><path d="M-1.72 -1.46 C52.1 2.08, 106.13 2.8, 184.34 -1.32 M-0.8 0.69 C55.3 -0.93, 109.63 -2.67, 185.64 0.34 M183.61 -1.31 C184.67 17.52, 184.46 36.47, 183.08 51.87 M185 0.34 C185.39 13.82, 184.15 28.9, 184.89 51.89 M184.58 50.16 C123.34 54.41, 62.58 53.71, -1.54 50.84 M185.36 51.58 C133.32 53.83, 84.36 54.5, 0.15 52.74 M0.73 53.82 C0.53 36.49, -0.96 20.69, -0.9 1.15 M-0.97 51.67 C-1.37 31.62, 0.5 10.34, -0.36 -0.49" stroke="#000000" stroke-width="1" fill="none"></path></g><g stroke-linecap="round" transform="translate(559 139) rotate(0 92.5 26)"><path d="M-0.34 1.37 C68.82 -1.06, 140.32 -0.69, 184.63 -1.48 M0.29 0.74 C70.76 -0.53, 142.85 -0.86, 184.08 -0.92 M184.79 1.14 C185.34 13.11, 186.21 22.37, 183.89 51.67 M185.6 0.47 C185.04 16.09, 184.67 31.37, 185.62 52.11 M183.79 51.21 C140.38 50.89, 93.17 49.43, -0.98 52.56 M185.29 52.26 C123.44 51.31, 63.94 52.18, 0.05 51.09 M0.15 53.7 C-2.08 38.28, 1.68 22.54, -0.19 1.77 M0.57 51.54 C0.63 32.16, -0.55 11.96, -0.02 -0.59" stroke="#000000" stroke-width="1" fill="none"></path></g><g stroke-linecap="round" transform="translate(1163.7857654645331 309.4356341055649) rotate(0 92.5 26)"><path d="M-1.53 0.03 C54.63 -1.96, 111.89 -1.72, 184.84 -0.59 M-0.95 -0.23 C41.82 0.34, 84.16 -0.14, 185.91 0.92 M184.91 -0.52 C185.48 14.35, 184.45 25.63, 186.34 50.18 M184.76 -0.22 C184.02 20.24, 185.35 40.45, 184.71 51.89 M185.39 52.32 C117.07 51.78, 52.62 51.99, -0.49 53.25 M185.97 51.84 C111.74 51.7, 41.01 52.04, 0.06 52.37 M1.49 53.19 C1.1 41.25, 0.31 30.54, 1.45 -0.54 M-0.34 51.33 C0.47 30.92, 1.11 12.4, -0.63 -0.31" stroke="#000000" stroke-width="1" fill="none"></path></g><g stroke-linecap="round" transform="translate(807.9142584189157 607.0458562216384) rotate(0 92.5 31.5)"><path d="M-0.02 0.49 C70.88 1.65, 145.85 3.03, 186.96 1.25 M-0.31 0.08 C48.35 0.87, 98.27 -0.63, 185.85 -0.75 M185.71 -1.31 C186.14 22.2, 185.53 41.48, 184.28 63.4 M185.2 -0.49 C184.05 18.05, 184.68 36.97, 184.04 63.78 M186.84 63.6 C142.67 60.08, 105.18 62.36, -0.55 64.2 M184.07 62.86 C146.79 62.53, 109.39 60.91, 0.52 62.84 M-0.42 62.1 C1.7 48.26, 1.24 33.41, 0.92 0.03 M-0.27 63.56 C-0.5 39.8, -0.97 16.72, 0.84 0.17" stroke="#000000" stroke-width="1" fill="none"></path></g><g stroke-linecap="round" transform="translate(1551.6138046333895 644.4373059469788) rotate(0 92.5 44.5)"><path d="M-0.78 -1.66 C37.26 1.64, 74.31 2.31, 184.84 1.73 M-0.96 0.89 C63.45 -0.47, 126.94 -0.59, 184.47 -0.97 M183.57 -0.35 C182.98 20.45, 185.24 36.92, 186.81 88.73 M184.67 -0.77 C184.59 32.58, 184.99 64.94, 184.67 89.48 M184.4 89.61 C114.83 90.04, 48.98 87.03, -1.51 90.87 M185.29 89.72 C147.8 87.21, 110.12 88.3, -0.05 88.74 M-0.12 87.45 C-2.6 67.98, -1.43 50.08, 0.48 1.76 M-0.8 89.29 C0.48 55.52, 0.32 24.1, 0.98 -0.27" stroke="#000000" stroke-width="1" fill="none"></path></g><g stroke-linecap="round" transform="translate(2105.5297348937183 742.4812514927156) rotate(0 92.5 44.5)"><path d="M-1.88 1.23 C62.8 0.16, 126.02 -0.46, 185.92 1.44 M0.1 0.69 C42.48 -2.12, 82.35 -0.56, 185.17 0.06 M183.96 -1.64 C185.38 33.56, 185.72 64.44, 185.51 88.84 M184.66 -0.64 C184.88 23.72, 183.67 48.44, 185.69 89.26 M186.81 87.19 C116.11 91.42, 45.71 89.49, -1.8 88.85 M184.61 88.19 C135.24 88.27, 86.61 86.85, 0.34 89.67 M0.37 89.21 C1.48 57.84, 0.66 24.1, 0.53 -0.23 M-0.48 90 C1.76 71.09, 1.28 52.27, 0.44 -0.27" stroke="#000000" stroke-width="1" fill="none"></path></g><g stroke-linecap="round" transform="translate(2105.747074277525 930.5256747074277) rotate(0 92.5 44.5)"><path d="M-0.73 1.52 C65.94 2.54, 133.2 2.96, 186.21 0.83 M0.86 0.98 C52.89 -2.27, 104.79 -2.24, 185.28 -0.23 M186.28 -0.95 C184.8 24.75, 183.66 50.93, 184.91 88.99 M185.93 0.22 C185.49 29.14, 186.11 56.46, 184.94 89.72 M184.57 87.67 C120.6 87.71, 53.94 85.52, 1.66 89.41 M184.52 88.81 C127.59 90.07, 71.97 89.39, -0.42 89.11 M1.98 90.95 C-1.39 56.48, -1.66 26.02, -1.63 -1.7 M0.07 88.81 C-0.94 55.08, -0.97 22.54, -0.7 -0.78" stroke="#000000" stroke-width="1" fill="none"></path></g><g stroke-linecap="round" transform="translate(2109.8774779078085 1120.5266300453784) rotate(0 93.5 44.5)"><path d="M-0.31 -1.37 C39.69 0.71, 81.97 -1.34, 187.8 0.76 M0.55 -0.27 C60.52 1.1, 119.2 0.83, 187.23 0.48 M185.22 -0.91 C186.51 32.76, 187.99 62.09, 185.46 89.54 M187.04 0.3 C185.87 29.39, 185.69 60.6, 186.77 88.24 M186.66 87.15 C144.15 88.26, 99.14 86.3, 1.06 87.82 M187.91 88.79 C115.06 87.27, 43.12 87.81, 0.52 89.62 M1.11 89.1 C1.3 55.08, -0.8 21.75, 1.74 -1.43 M-0.02 89.88 C-0.59 65.28, -0.06 42.86, -0.01 0.54" stroke="#000000" stroke-width="1" fill="none"></path></g><g stroke-linecap="round" transform="translate(2106.181753045138 1294.8753283974204) rotate(0 93.5 44.5)"><path d="M1.65 1.43 C54.01 -0.49, 108.01 0.39, 185.39 -0.31 M-0.19 0.08 C67.74 -0.22, 134.31 -0.87, 186.14 -0.89 M186.36 0.8 C187.59 23.65, 188.26 50.28, 186.18 89.03 M186.06 0.44 C187.56 24.76, 187.03 48.39, 186.93 88.58 M187.87 89.89 C115.09 91.24, 47.74 90.02, 0.18 88.48 M186.81 88.25 C134.35 88.13, 80.71 87.85, 0.26 88.85 M-0.08 89.47 C1.05 57.76, 1.25 25.11, -0.89 -1.5 M0.31 89.46 C1.19 64.24, 0.68 40.45, -0.43 -0.95" stroke="#000000" stroke-width="1" fill="none"></path></g><g stroke-linecap="round" transform="translate(2102.486028182468 1502.4850728445185) rotate(0 93.5 44.5)"><path d="M-0.16 0.51 C40.92 0.56, 76.88 -2.53, 188.04 -1.44 M-0.58 0.26 C39.32 0.06, 81.2 -0.7, 186.05 -0.76 M187.27 1.68 C188.47 27.44, 188.73 53.13, 188.14 87.11 M187.44 0.46 C187.47 19.12, 188.02 39.19, 187.86 88.93 M186.05 89.49 C142.74 89.46, 99.15 89.89, 0.97 87.24 M187.24 89.2 C119.76 89.56, 53.13 88.19, 0.09 89.5 M-1.64 87.25 C-1.87 61.56, -0.91 35.45, 1.73 -0.01 M-0.02 88.01 C-0.06 61.97, 0.47 34.61, -0.08 -0.2" stroke="#000000" stroke-width="1" fill="none"></path></g><g stroke-linecap="round" transform="translate(219 145) rotate(0 92.5 26)"><path d="M-1.08 1.05 C51.87 2.97, 101.31 2.58, 184.5 -0.06 M0.32 -0.29 C38.66 -1.65, 77.99 -1.67, 186 -0.27 M184.92 1.36 C184.15 17.5, 186.32 33.93, 184.15 53.16 M185.3 0.57 C185.43 13.16, 184.76 26.86, 185.94 52.95 M186.67 52.12 C124.72 54.17, 64.59 53.88, 1.1 51.43 M185.12 52.38 C133.06 49.54, 80.51 51.08, 0.74 52.78 M-0.91 53.25 C-0.91 36.91, -0.62 21.85, 0.02 0.64 M-0.51 51.44 C-0.66 36.94, -0.59 19.72, -0.56 0.59" stroke="#000000" stroke-width="1" fill="none"></path></g><g stroke-linecap="round" transform="translate(222.18242343541942 303.6231691078562) rotate(0 92.5 26)"><path d="M0.09 -0.36 C49.14 2.55, 101.47 0.6, 184 -1.54 M0.65 0.66 C45.74 -1.03, 93.12 -1.98, 184.04 0.6 M183.86 1.97 C186.13 12.43, 184.89 24.49, 185.95 50.11 M185.92 0.09 C183.98 19.56, 184.72 39.36, 184.08 51.6 M183.94 51.41 C128.67 53.27, 75.08 51.64, 0.21 51.77 M184.91 52.63 C113.85 52.55, 40.7 53.03, 0.2 51.3 M-1.98 52.59 C-0.99 39.66, 0.37 25.74, -1.07 1.39 M-0.58 52 C0.08 37.94, -0.14 22.58, -0.01 -0.56" stroke="#000000" stroke-width="1" fill="none"></path></g><g stroke-linecap="round" transform="translate(949.3914780292944 140.45672436751005) rotate(0 92.5 26)"><path d="M-1.59 0.36 C73.44 0.48, 148.95 1.42, 183.41 -0.5 M-0.5 -0.78 C55.86 -1.23, 111.74 -1.5, 184.71 -0.84 M185.32 -1 C183.08 13.39, 184 28.76, 185.72 52.02 M184.65 -0.67 C186.24 20.39, 186.25 42.15, 185.45 51.9 M183.72 53.96 C128.4 52.11, 69.45 53.42, -0.81 50.53 M184.99 53 C141.52 50.69, 97.25 51.25, 0.79 52.01 M-1.36 51.51 C0.75 40.67, 1.81 26.86, -1.31 1.21 M-0.68 51 C-0.08 39.79, 1.06 28.49, 0.65 -0.02" stroke="#000000" stroke-width="1" fill="none"></path></g><g transform="translate(620.5 23) rotate(0 28 13)"><text x="28" y="18" font-family="Virgil, Segoe UI Emoji" font-size="20px" fill="#000000" text-anchor="middle" style="white-space: pre;" direction="ltr">HOME</text></g><g stroke-linecap="round"><g transform="translate(649 71) rotate(0 1.6163212019949924 27.11115326351485)"><path d="M-0.69 -0.41 C-0.11 9.02, 3.12 46.81, 3.92 55.89 M1.15 -1.67 C1.53 7.5, 2.55 44.81, 2.94 54.23" stroke="#000000" stroke-width="1" fill="none"></path></g><g transform="translate(649 71) rotate(0 1.6163212019949924 27.11115326351485)"><path d="M-8.03 28.53 C-2.56 37.54, -2.18 44.62, 1.23 55.3 M-7.3 28.39 C-4.06 37.78, -0.04 47.11, 3.8 54.58" stroke="#000000" stroke-width="1" fill="none"></path></g><g transform="translate(649 71) rotate(0 1.6163212019949924 27.11115326351485)"><path d="M10.82 27.9 C9.95 37.01, 4.01 44.3, 1.23 55.3 M11.55 27.76 C8.3 37.36, 5.83 46.91, 3.8 54.58" stroke="#000000" stroke-width="1" fill="none"></path></g></g><g transform="translate(674 85) rotate(0 95.5 13)"><text x="0" y="18" font-family="Virgil, Segoe UI Emoji" font-size="20px" fill="#000000" text-anchor="start" style="white-space: pre;" direction="ltr">Start Btn Pressed</text></g><g transform="translate(598.5 152) rotate(0 53 13)"><text x="53" y="18" font-family="Virgil, Segoe UI Emoji" font-size="20px" fill="#000000" text-anchor="middle" style="white-space: pre;" direction="ltr">Login Page</text></g><g transform="translate(1201.7857654645331 322.1856341055649) rotate(0 54.5 13)"><text x="54.5" y="18" font-family="Virgil, Segoe UI Emoji" font-size="20px" fill="#000000" text-anchor="middle" style="white-space: pre;" direction="ltr">Dash Page</text></g><g transform="translate(835.4142584189157 612.0458562216384) rotate(0 65 26)"><text x="65" y="18" font-family="Virgil, Segoe UI Emoji" font-size="20px" fill="#000000" text-anchor="middle" style="white-space: pre;" direction="ltr">Transactions</text><text x="65" y="44" font-family="Virgil, Segoe UI Emoji" font-size="20px" fill="#000000" text-anchor="middle" style="white-space: pre;" direction="ltr">Page</text></g><g transform="translate(1619.1138046333895 662.9373059469788) rotate(0 25 26)"><text x="25" y="18" font-family="Virgil, Segoe UI Emoji" font-size="20px" fill="#000000" text-anchor="middle" style="white-space: pre;" direction="ltr">Pix</text><text x="25" y="44" font-family="Virgil, Segoe UI Emoji" font-size="20px" fill="#000000" text-anchor="middle" style="white-space: pre;" direction="ltr">Page</text></g><g transform="translate(2134.5297348937183 760.4812514927156) rotate(0 63.5 26)"><text x="63.5" y="18" font-family="Virgil, Segoe UI Emoji" font-size="20px" fill="#000000" text-anchor="middle" style="white-space: pre;" direction="ltr">Pix Transfer</text><text x="63.5" y="44" font-family="Virgil, Segoe UI Emoji" font-size="20px" fill="#000000" text-anchor="middle" style="white-space: pre;" direction="ltr">Page</text></g><g transform="translate(2148.247074277525 949.0256747074277) rotate(0 50 26)"><text x="50" y="18" font-family="Virgil, Segoe UI Emoji" font-size="20px" fill="#000000" text-anchor="middle" style="white-space: pre;" direction="ltr">Pix Value</text><text x="50" y="44" font-family="Virgil, Segoe UI Emoji" font-size="20px" fill="#000000" text-anchor="middle" style="white-space: pre;" direction="ltr">Component</text></g><g transform="translate(2122.8774779078085 1126.0266300453784) rotate(0 79.5 39)"><text x="79.5" y="18" font-family="Virgil, Segoe UI Emoji" font-size="20px" fill="#000000" text-anchor="middle" style="white-space: pre;" direction="ltr">Pix Account to </text><text x="79.5" y="44" font-family="Virgil, Segoe UI Emoji" font-size="20px" fill="#000000" text-anchor="middle" style="white-space: pre;" direction="ltr">Transfer </text><text x="79.5" y="70" font-family="Virgil, Segoe UI Emoji" font-size="20px" fill="#000000" text-anchor="middle" style="white-space: pre;" direction="ltr">Component</text></g><g transform="translate(2119.181753045138 1300.3753283974204) rotate(0 79.5 39)"><text x="79.5" y="18" font-family="Virgil, Segoe UI Emoji" font-size="20px" fill="#000000" text-anchor="middle" style="white-space: pre;" direction="ltr">Pix Account to </text><text x="79.5" y="44" font-family="Virgil, Segoe UI Emoji" font-size="20px" fill="#000000" text-anchor="middle" style="white-space: pre;" direction="ltr">Transfer </text><text x="79.5" y="70" font-family="Virgil, Segoe UI Emoji" font-size="20px" fill="#000000" text-anchor="middle" style="white-space: pre;" direction="ltr">Component</text></g><g transform="translate(2119.986028182468 1520.4850728445185) rotate(0 75 26)"><text x="75" y="18" font-family="Virgil, Segoe UI Emoji" font-size="20px" fill="#000000" text-anchor="middle" style="white-space: pre;" direction="ltr">Pix Transfered</text><text x="75" y="44" font-family="Virgil, Segoe UI Emoji" font-size="20px" fill="#000000" text-anchor="middle" style="white-space: pre;" direction="ltr">Component</text></g><g transform="translate(241.5 158) rotate(0 70 13)"><text x="70" y="18" font-family="Virgil, Segoe UI Emoji" font-size="20px" fill="#000000" text-anchor="middle" style="white-space: pre;" direction="ltr">Register Page</text></g><g transform="translate(240.68242343541942 316.8731691078562) rotate(0 74 13)"><text x="74" y="18" font-family="Virgil, Segoe UI Emoji" font-size="20px" fill="#000000" text-anchor="middle" style="white-space: pre;" direction="ltr">User Registers</text></g><g transform="translate(976.3914780292944 153.20672436751005) rotate(0 65.5 13)"><text x="65.5" y="18" font-family="Virgil, Segoe UI Emoji" font-size="20px" fill="#000000" text-anchor="middle" style="white-space: pre;" direction="ltr">User Logs In</text></g><g stroke-linecap="round"><g transform="translate(549 164.07038999320082) rotate(0 -65.09844482354819 2.492859138337394)"><path d="M0.93 0.73 C-20.97 1.23, -109.14 3.17, -131.13 3.79 M-0.04 0.07 C-21.62 0.64, -107.57 3.96, -129.01 4.92" stroke="#000000" stroke-width="1" fill="none"></path></g><g transform="translate(549 164.07038999320082) rotate(0 -65.09844482354819 2.492859138337394)"><path d="M-100.04 -8.36 C-111.48 -4.27, -119.28 0.18, -129.47 3.71 M-100.67 -5.73 C-111.32 -1.86, -121.98 1.25, -129.14 4.98" stroke="#000000" stroke-width="1" fill="none"></path></g><g transform="translate(549 164.07038999320082) rotate(0 -65.09844482354819 2.492859138337394)"><path d="M-99.2 12.14 C-111.05 9.6, -119.12 7.42, -129.47 3.71 M-99.84 14.78 C-110.78 10.94, -121.75 6.35, -129.14 4.98" stroke="#000000" stroke-width="1" fill="none"></path></g></g><g transform="translate(436 129.6875) rotate(0 50 10)"><text x="0" y="14" font-family="Virgil, Segoe UI Emoji" font-size="15.624999999999996px" fill="#000000" text-anchor="start" style="white-space: pre;" direction="ltr">Register Btn</text></g><g stroke-linecap="round"><g transform="translate(416.4447403462052 329.3528628495339) rotate(0 116.64027925638231 -62.58327736060269)"><path d="M-1.09 -0.69 C33.4 -1.97, 166.68 14.13, 205.93 -7.27 C245.17 -28.67, 229.75 -108.77, 234.37 -129.09 M0.54 1.57 C34.93 -0.07, 165.87 12.71, 204.75 -8.83 C243.64 -30.36, 229 -107.77, 233.84 -127.63" stroke="#000000" stroke-width="1" fill="none"></path></g><g transform="translate(416.4447403462052 329.3528628495339) rotate(0 116.64027925638231 -62.58327736060269)"><path d="M241.96 -99.82 C242.84 -104.5, 239.5 -111.72, 234.11 -126.43 M243.7 -99.41 C239.97 -107.6, 236.7 -115.67, 234.66 -127.45" stroke="#000000" stroke-width="1" fill="none"></path></g><g transform="translate(416.4447403462052 329.3528628495339) rotate(0 116.64027925638231 -62.58327736060269)"><path d="M221.45 -100.54 C226.7 -104.88, 227.73 -111.95, 234.11 -126.43 M223.19 -100.13 C225.53 -108.06, 228.33 -115.92, 234.66 -127.45" stroke="#000000" stroke-width="1" fill="none"></path></g></g><g stroke-linecap="round"><g transform="translate(214 166) rotate(0 -23.73399353764951 0.37801670168821033)"><path d="M-0.59 0.84 C-8.78 0.86, -40.99 1.39, -48.77 1.11 M1.3 0.23 C-6.53 -0.14, -38.3 -0.4, -46.47 -0.43" stroke="#000000" stroke-width="1" fill="none"></path></g></g><g stroke-linecap="round" transform="translate(10 92) rotate(0 76.5 75.5)"><path d="M74.71 -0.04 C85.2 -1.43, 97.43 1.14, 107.61 5.75 C117.79 10.36, 128.49 19.27, 135.78 27.62 C143.07 35.97, 148.66 45.43, 151.33 55.86 C154 66.28, 154.02 79.29, 151.81 90.18 C149.59 101.08, 144.61 112.4, 138.04 121.23 C131.46 130.05, 122.15 138.17, 112.37 143.14 C102.59 148.12, 90.6 150.71, 79.37 151.07 C68.14 151.42, 55.13 149.82, 44.99 145.27 C34.85 140.71, 25.77 132.08, 18.51 123.74 C11.25 115.4, 4.24 105.73, 1.44 95.23 C-1.37 84.73, -0.6 71.68, 1.68 60.75 C3.96 49.82, 8.59 38.33, 15.11 29.64 C21.64 20.94, 30.6 13.57, 40.82 8.56 C51.04 3.55, 70.06 0.56, 76.43 -0.45 C82.81 -1.45, 79.13 1.14, 79.06 2.54 M100.28 2.87 C110.52 4.89, 122.84 12.36, 130.69 20.26 C138.55 28.16, 143.76 39.91, 147.42 50.28 C151.08 60.64, 153.64 71.45, 152.67 82.43 C151.69 93.41, 147.38 106.82, 141.59 116.17 C135.8 125.53, 127.11 132.7, 117.9 138.55 C108.7 144.4, 97.31 149.7, 86.37 151.26 C75.43 152.83, 62.98 151.75, 52.28 147.95 C41.57 144.15, 29.88 136.11, 22.11 128.46 C14.35 120.81, 9.05 112.2, 5.67 102.04 C2.28 91.88, 1.05 78.44, 1.8 67.5 C2.54 56.56, 4.46 45.55, 10.14 36.39 C15.81 27.24, 26.46 18.59, 35.85 12.57 C45.24 6.54, 55.49 1.52, 66.48 0.23 C77.48 -1.05, 96.39 4.08, 101.82 4.85 C107.25 5.62, 99.75 3.89, 99.06 4.87" stroke="#000000" stroke-width="1" fill="none"></path></g><g stroke-linecap="round" transform="translate(774 215) rotate(0 76.5 75.5)"><path d="M112.72 9.22 C122.53 13.07, 130.58 21.56, 136.97 30.06 C143.37 38.55, 148.86 49.5, 151.1 60.21 C153.34 70.92, 153.22 83.72, 150.43 94.31 C147.64 104.91, 141.51 115.43, 134.37 123.79 C127.24 132.14, 117.73 139.92, 107.62 144.46 C97.51 149, 84.79 151.42, 73.73 151.01 C62.68 150.61, 51.11 146.94, 41.29 142.03 C31.47 137.12, 21.58 130.4, 14.8 121.57 C8.03 112.74, 2.73 100.02, 0.63 89.05 C-1.47 78.09, -0.8 66.3, 2.2 55.77 C5.21 45.23, 11.51 34.1, 18.67 25.87 C25.84 17.64, 35.18 10.65, 45.19 6.4 C55.21 2.15, 67.24 -0.35, 78.75 0.38 C90.25 1.11, 108.05 8.56, 114.22 10.77 C120.39 12.99, 116.2 12.57, 115.79 13.68 M58.55 0.96 C68.35 -2.12, 82.24 0.22, 93.13 2.94 C104.02 5.66, 115.2 10.6, 123.89 17.27 C132.59 23.95, 140.47 33.24, 145.28 42.99 C150.09 52.75, 152.96 64.73, 152.76 75.79 C152.55 86.85, 148.78 99.4, 144.06 109.35 C139.33 119.31, 132.64 128.93, 124.4 135.51 C116.17 142.09, 105.66 146.51, 94.63 148.83 C83.61 151.15, 69.08 151.76, 58.27 149.46 C47.45 147.16, 38.12 141.86, 29.74 135.04 C21.36 128.21, 13 118.54, 7.99 108.53 C2.97 98.51, -0.38 86, -0.35 74.94 C-0.32 63.89, 3.46 51.83, 8.18 42.17 C12.9 32.51, 19.57 23.58, 27.97 16.99 C36.37 10.39, 53.19 5.05, 58.58 2.61 C63.97 0.17, 59.59 1.17, 60.28 2.36" stroke="#000000" stroke-width="1" fill="none"></path></g><g stroke-linecap="round" transform="translate(425.07924848027193 209.68878775541333) rotate(0 39.99999999999997 43)"><path d="M44.01 0.4 C50.84 0.5, 59.87 5.31, 65.38 10.02 C70.89 14.73, 74.93 21.34, 77.06 28.67 C79.2 35.99, 79.68 46.37, 78.17 53.96 C76.66 61.56, 73.13 69.02, 68.01 74.22 C62.89 79.42, 54.45 83.65, 47.43 85.17 C40.42 86.68, 32.7 86.28, 25.91 83.33 C19.13 80.38, 10.9 73.75, 6.75 67.46 C2.6 61.17, 1.3 53.2, 1.01 45.59 C0.72 37.97, 1.56 28.51, 5 21.76 C8.45 15, 14.46 8.67, 21.68 5.05 C28.91 1.44, 43.37 0.41, 48.36 0.07 C53.34 -0.28, 51.99 2.29, 51.61 2.97 M55.64 1.87 C62.54 3.96, 69.23 10.45, 73.3 17.05 C77.38 23.64, 80.01 33.49, 80.11 41.41 C80.2 49.33, 77.49 57.85, 73.89 64.57 C70.29 71.29, 64.78 78.18, 58.51 81.74 C52.24 85.3, 43.41 86.89, 36.27 85.95 C29.13 85, 21.36 81.04, 15.68 76.07 C10 71.1, 4.39 63.51, 2.17 56.13 C-0.04 48.74, 0.63 38.93, 2.41 31.73 C4.19 24.54, 7.9 18.21, 12.84 12.95 C17.79 7.68, 25.07 2.01, 32.06 0.15 C39.05 -1.72, 51.25 1.04, 54.77 1.74 C58.29 2.44, 53.33 3.25, 53.18 4.34" stroke="#000000" stroke-width="1" fill="none"></path></g><g transform="translate(45.5 141.5) rotate(0 41 26)"><text x="41" y="18" font-family="Virgil, Segoe UI Emoji" font-size="20px" fill="#000000" text-anchor="middle" style="white-space: pre;" direction="ltr">Register</text><text x="41" y="44" font-family="Virgil, Segoe UI Emoji" font-size="20px" fill="#000000" text-anchor="middle" style="white-space: pre;" direction="ltr">Form</text></g><g transform="translate(826.5 264.5) rotate(0 24 26)"><text x="24" y="18" font-family="Virgil, Segoe UI Emoji" font-size="20px" fill="#000000" text-anchor="middle" style="white-space: pre;" direction="ltr">Login</text><text x="24" y="44" font-family="Virgil, Segoe UI Emoji" font-size="20px" fill="#000000" text-anchor="middle" style="white-space: pre;" direction="ltr">Form</text></g><g stroke-linecap="round"><g transform="translate(746 191) rotate(0 33.01535350807944 16.389188501900065)"><path d="M0.83 -0.17 C12.01 5.48, 55.54 28.48, 66.23 34.08 M-0.2 -1.3 C10.92 4.02, 54.15 27.09, 65.4 32.53" stroke="#000000" stroke-width="1" fill="none"></path></g></g><g stroke-linecap="round"><g transform="translate(410.496116943612 197.18896072399053) rotate(0 17.121298857243858 9.038647611195273)"><path d="M0.23 1.07 C6.3 3.89, 29.62 14.67, 35.36 17.49 M-1.12 0.58 C4.98 2.98, 29.07 12.94, 34.93 15.53" stroke="#000000" stroke-width="1" fill="none"></path></g></g><g stroke-linecap="round"><g transform="translate(750.0000000000001 161.41792330583974) rotate(0 95.69188543188022 0.04787004396524708)"><path d="M-0.5 0.6 C31.31 0.57, 159.82 -0.51, 191.89 -0.51 M1.43 -0.13 C33.02 -0.02, 159.39 0.15, 191.02 0.5" stroke="#000000" stroke-width="1" fill="none"></path></g><g transform="translate(750.0000000000001 161.41792330583974) rotate(0 95.69188543188022 0.04787004396524708)"><path d="M163.78 10.87 C171.91 7.14, 184.57 3.75, 191.57 -1.45 M162.66 9.97 C169.94 7.7, 177 5.59, 190.59 -0.32" stroke="#000000" stroke-width="1" fill="none"></path></g><g transform="translate(750.0000000000001 161.41792330583974) rotate(0 95.69188543188022 0.04787004396524708)"><path d="M163.89 -9.65 C171.93 -5.53, 184.54 -1.07, 191.57 -1.45 M162.77 -10.55 C170.21 -7.52, 177.24 -4.33, 190.59 -0.32" stroke="#000000" stroke-width="1" fill="none"></path></g></g><g stroke-linecap="round"><g transform="translate(311.12117177097167 203.91744340878859) rotate(0 1.7171647879422665 43.904813647418536)"><path d="M-0.45 -1.07 C0.01 13.32, 3.18 72.63, 3.89 87.32 M1.51 0.98 C1.71 15.5, 2.61 74.34, 2.83 88.88" stroke="#000000" stroke-width="1" fill="none"></path></g><g transform="translate(311.12117177097167 203.91744340878859) rotate(0 1.7171647879422665 43.904813647418536)"><path d="M-9.65 60.51 C-3.37 71.33, 0.34 82.16, 3.81 89.49 M-7.56 60.23 C-4.72 68.06, -3.75 73.5, 3.08 88.04" stroke="#000000" stroke-width="1" fill="none"></path></g><g transform="translate(311.12117177097167 203.91744340878859) rotate(0 1.7171647879422665 43.904813647418536)"><path d="M10.87 60.2 C9.13 71.06, 4.81 82.02, 3.81 89.49 M12.96 59.92 C10.93 67.65, 7.05 73.17, 3.08 88.04" stroke="#000000" stroke-width="1" fill="none"></path></g></g><g transform="translate(441.079248480272 227.18878775541333) rotate(0 24 26)"><text x="24" y="18" font-family="Virgil, Segoe UI Emoji" font-size="20px" fill="#000000" text-anchor="middle" style="white-space: pre;" direction="ltr">Login</text><text x="24" y="44" font-family="Virgil, Segoe UI Emoji" font-size="20px" fill="#000000" text-anchor="middle" style="white-space: pre;" direction="ltr">Btn</text></g><g stroke-linecap="round"><g transform="translate(506.1038615179756 248.91344873502027) rotate(0 70.2562994794257 0.15939489372073012)"><path d="M0.25 -0.64 C23.99 -0.58, 117.99 0.6, 141.59 0.52 M-1.08 1.64 C22.57 1.32, 116.84 -0.99, 140.53 -1.32" stroke="#000000" stroke-width="1" fill="none"></path></g></g><g stroke-linecap="round"><g transform="translate(1148.3576754757678 202.3074076535804) rotate(0 52.472710245495364 45.227845644595504)"><path d="M0.2 0.55 C17.75 15.42, 88.53 74.58, 106.1 89.43 M-1.16 -0.21 C16.2 14.79, 87.72 75.5, 105.39 90.67" stroke="#000000" stroke-width="1" fill="none"></path></g><g transform="translate(1148.3576754757678 202.3074076535804) rotate(0 52.472710245495364 45.227845644595504)"><path d="M78.2 80.93 C86.66 83.98, 97.34 88.58, 103.78 92.1 M77.06 80.44 C85.87 82.43, 95.5 87.75, 105.93 90.74" stroke="#000000" stroke-width="1" fill="none"></path></g><g transform="translate(1148.3576754757678 202.3074076535804) rotate(0 52.472710245495364 45.227845644595504)"><path d="M91.52 65.32 C95.12 74.12, 100.91 84.44, 103.78 92.1 M90.38 64.82 C94.82 72.11, 100.03 82.61, 105.93 90.74" stroke="#000000" stroke-width="1" fill="none"></path></g></g><g stroke-linecap="round"><g transform="translate(1164.0099324616765 362.7430417591453) rotate(0 -32.461278605687994 25.062018783176683)"><path d="M1.08 -1.01 C-9.85 7.32, -54.47 42.32, -65.56 51.14 M0.19 1.07 C-10.82 9.53, -55.02 40.98, -66.01 49.16" stroke="#000000" stroke-width="1" fill="none"></path></g></g><g stroke-linecap="round" transform="translate(1457.4897509474654 351.00384901971387) rotate(0 75.3264867446859 71.4134224982088)"><path d="M72.12 0.67 C82.29 -0.88, 94.12 1.48, 103.88 5.38 C113.63 9.28, 123.24 16.21, 130.65 24.08 C138.05 31.96, 145.29 42.62, 148.31 52.66 C151.32 62.7, 150.68 74.43, 148.74 84.33 C146.8 94.22, 142.97 103.76, 136.69 112.04 C130.41 120.31, 120.74 128.98, 111.06 133.98 C101.39 138.98, 89.43 141.55, 78.63 142.03 C67.84 142.51, 56.06 140.6, 46.28 136.84 C36.5 133.09, 27.24 127.04, 19.95 119.49 C12.67 111.94, 5.69 101.52, 2.56 91.53 C-0.57 81.54, -0.66 69.75, 1.17 59.56 C3.01 49.37, 7.36 38.81, 13.55 30.41 C19.75 22.02, 28.27 14.21, 38.33 9.18 C48.4 4.16, 67.5 1.42, 73.96 0.27 C80.42 -0.88, 77.18 1.29, 77.12 2.31 M104.85 5.55 C114.72 8.03, 125.23 15.51, 132.28 23.51 C139.34 31.51, 144.49 43.44, 147.16 53.54 C149.83 63.64, 150.12 74.13, 148.33 84.1 C146.53 94.06, 142.83 104.99, 136.39 113.33 C129.96 121.67, 119.23 129.41, 109.71 134.14 C100.19 138.87, 89.95 141.38, 79.27 141.7 C68.6 142.02, 55.68 139.7, 45.66 136.05 C35.64 132.4, 26.37 127.35, 19.17 119.79 C11.98 112.23, 5.35 100.77, 2.49 90.69 C-0.38 80.6, 0.06 69.62, 1.99 59.26 C3.93 48.89, 7.66 37.05, 14.09 28.51 C20.52 19.98, 30.74 12.85, 40.56 8.04 C50.38 3.24, 62.05 0.01, 72.99 -0.32 C83.93 -0.66, 100.92 5.03, 106.2 6.02 C111.48 7.01, 105.21 4.6, 104.67 5.6" stroke="#000000" stroke-width="1" fill="none"></path></g><g stroke-linecap="round" transform="translate(1109.4443723948025 451.00432668868916) rotate(0 75.3264867446859 71.41342249820877)"><path d="M108.38 6.42 C118.25 9.71, 127.54 18.3, 134.22 26.45 C140.9 34.61, 146.03 45.14, 148.45 55.34 C150.87 65.54, 150.95 77.66, 148.74 87.66 C146.53 97.65, 142.04 107.41, 135.19 115.31 C128.34 123.2, 117.63 130.44, 107.63 135.01 C97.63 139.58, 86.03 142.44, 75.19 142.73 C64.34 143.01, 52.27 141.32, 42.54 136.71 C32.82 132.1, 23.66 123.23, 16.83 115.08 C10 106.93, 4.07 97.78, 1.58 87.81 C-0.9 77.83, -0.68 65.32, 1.92 55.22 C4.53 45.11, 10.32 35.2, 17.21 27.18 C24.1 19.16, 33.44 11.78, 43.27 7.1 C53.09 2.43, 64.38 -1.35, 76.15 -0.88 C87.93 -0.42, 106.6 7.33, 113.93 9.92 C121.26 12.51, 120.69 13.66, 120.14 14.65 M71.31 1.06 C81.41 -0.06, 95.08 3.34, 105.22 7.21 C115.36 11.08, 125.23 16.87, 132.15 24.29 C139.07 31.7, 143.96 41.81, 146.74 51.72 C149.53 61.63, 150.71 73.4, 148.85 83.73 C146.99 94.07, 141.68 105.29, 135.59 113.74 C129.5 122.18, 121.98 129.67, 112.3 134.41 C102.62 139.15, 88.75 141.78, 77.48 142.19 C66.21 142.61, 54.65 140.7, 44.69 136.91 C34.73 133.12, 24.64 127.21, 17.73 119.45 C10.82 111.69, 6.01 100.52, 3.23 90.35 C0.45 80.18, -0.84 68.57, 1.06 58.41 C2.95 48.25, 8.25 37.77, 14.58 29.39 C20.91 21.02, 29.31 13.18, 39.05 8.16 C48.79 3.14, 67.55 0.26, 73.02 -0.71 C78.49 -1.67, 71.75 0.83, 71.88 2.37" stroke="#000000" stroke-width="1" fill="none"></path></g><g stroke-linecap="round" transform="translate(1295.5322634862762 457.09126244221204) rotate(0 75.3264867446859 71.41342249820877)"><path d="M108.99 8.4 C118.75 12, 129.16 20.87, 135.84 28.94 C142.52 37.01, 147.08 46.78, 149.09 56.81 C151.1 66.84, 150.54 79.17, 147.9 89.1 C145.27 99.04, 140.23 108.7, 133.29 116.42 C126.35 124.14, 116.07 131.13, 106.26 135.42 C96.46 139.72, 85.29 142.38, 74.48 142.2 C63.67 142.01, 51.11 138.78, 41.41 134.31 C31.71 129.83, 23.02 123.41, 16.28 115.34 C9.54 107.26, 3.3 95.93, 0.98 85.85 C-1.35 75.78, -0.47 64.85, 2.31 54.9 C5.09 44.95, 10.67 34.14, 17.65 26.14 C24.63 18.13, 34.17 11.19, 44.18 6.88 C54.19 2.58, 64.94 -0.88, 77.7 0.29 C90.47 1.46, 112.02 9.94, 120.75 13.91 C129.49 17.89, 130.69 22.89, 130.11 24.14 M39.41 9.52 C47.87 3.63, 61.28 -0.56, 72.29 -1.28 C83.31 -2, 95.38 0.86, 105.52 5.21 C115.65 9.55, 126.11 16.69, 133.12 24.8 C140.14 32.92, 144.98 43.7, 147.59 53.91 C150.2 64.11, 150.71 76.14, 148.78 86.05 C146.84 95.96, 142.46 105.09, 135.98 113.35 C129.5 121.61, 119.47 130.53, 109.88 135.58 C100.28 140.63, 89.11 143.37, 78.42 143.64 C67.73 143.9, 55.92 141.74, 45.75 137.17 C35.57 132.6, 24.36 124.28, 17.35 116.23 C10.34 108.18, 6.32 98.45, 3.69 88.85 C1.06 79.25, -0.55 68.7, 1.58 58.64 C3.71 48.58, 9.75 36.82, 16.47 28.49 C23.18 20.16, 37.6 11.96, 41.86 8.68 C46.12 5.39, 41.63 7.89, 42.03 8.8" stroke="#000000" stroke-width="1" fill="none"></path></g><g stroke-linecap="round" transform="translate(1784.882633679732 480.78698730488225) rotate(0 75.3264867446859 71.41342249820877)"><path d="M93.86 1.9 C104.15 3.16, 114.05 8.66, 122.46 15.28 C130.88 21.91, 139.7 32.03, 144.35 41.67 C148.99 51.31, 150.44 62.85, 150.34 73.12 C150.24 83.39, 148.51 94.33, 143.75 103.28 C138.99 112.23, 130.49 120.38, 121.8 126.83 C113.1 133.29, 102.14 139.85, 91.58 142.02 C81.02 144.2, 69.21 142.55, 58.45 139.89 C47.68 137.24, 35.57 132.55, 26.99 126.09 C18.42 119.63, 11.42 110.29, 7 101.13 C2.58 91.97, 0.29 81.47, 0.46 71.13 C0.63 60.79, 3.27 48.45, 8 39.09 C12.72 29.73, 20.1 21.35, 28.79 14.96 C37.48 8.58, 48.3 2.44, 60.14 0.75 C71.98 -0.94, 91.93 3.72, 99.84 4.83 C107.75 5.94, 108 6.51, 107.61 7.38 M97.26 3.72 C107.32 5.39, 117.45 11.12, 125.66 18.28 C133.87 25.45, 142.59 36.79, 146.52 46.71 C150.45 56.64, 150.46 67.56, 149.25 77.83 C148.03 88.1, 144.54 99.74, 139.23 108.33 C133.93 116.93, 126.49 123.84, 117.43 129.39 C108.37 134.94, 95.92 140.12, 84.89 141.62 C73.87 143.11, 61.51 141.47, 51.3 138.35 C41.09 135.23, 31.3 129.83, 23.63 122.9 C15.97 115.97, 9.26 106.11, 5.32 96.78 C1.38 87.45, -0.98 77.06, 0 66.92 C0.98 56.78, 5.85 45.13, 11.2 35.94 C16.54 26.75, 23.24 17.63, 32.09 11.77 C40.93 5.91, 53.52 2.28, 64.29 0.76 C75.06 -0.76, 90.96 1.98, 96.71 2.62 C102.45 3.26, 98.77 3.5, 98.77 4.61" stroke="#000000" stroke-width="1" fill="none"></path></g><g stroke-linecap="round" transform="translate(1830.1002118980264 721.6577778470365) rotate(0 75.3264867446859 71.41342249820877)"><path d="M51.21 2.78 C60.8 -1.58, 73.64 -1.34, 84.5 0.05 C95.37 1.43, 107.4 5.44, 116.4 11.09 C125.41 16.73, 132.81 25.08, 138.55 33.89 C144.28 42.7, 149.66 53.7, 150.81 63.97 C151.97 74.24, 149.31 85.86, 145.47 95.5 C141.64 105.14, 135.53 114.59, 127.83 121.82 C120.13 129.06, 109.44 135.59, 99.26 138.92 C89.08 142.25, 77.46 143.05, 66.74 141.79 C56.02 140.52, 44.2 137, 34.93 131.33 C25.65 125.67, 16.73 116.58, 11.09 107.8 C5.45 99.01, 2.16 88.79, 1.08 78.62 C0 68.46, 1.11 56.58, 4.61 46.83 C8.11 37.08, 12.07 27.95, 22.09 20.12 C32.12 12.28, 55.41 3.08, 64.78 -0.17 C74.14 -3.43, 78.21 -0.71, 78.27 0.58 M51.57 2.43 C61.19 -1.82, 73.68 -1.2, 84.71 0.55 C95.74 2.31, 108.6 7.4, 117.74 12.96 C126.89 18.52, 134.26 25.15, 139.57 33.91 C144.88 42.67, 148.35 55.35, 149.6 65.54 C150.86 75.73, 150.78 85.68, 147.09 95.05 C143.41 104.42, 135.72 114.15, 127.47 121.75 C119.22 129.34, 108.02 137.2, 97.6 140.6 C87.18 143.99, 75.57 143.65, 64.98 142.1 C54.38 140.54, 43.24 136.85, 34.03 131.25 C24.83 125.66, 15.45 117.28, 9.75 108.53 C4.06 99.78, 0.84 89.16, -0.15 78.73 C-1.15 68.31, 0.12 55.97, 3.77 45.97 C7.42 35.98, 13.9 25.65, 21.73 18.78 C29.56 11.9, 45.55 6.99, 50.76 4.7 C55.97 2.4, 52.34 4.01, 53 5.01" stroke="#000000" stroke-width="1" fill="none"></path></g><g stroke-linecap="round" transform="translate(1862.4628680094029 1093.1873849809567) rotate(0 75.3264867446859 71.41342249820877)"><path d="M91.8 0.87 C102.21 1.93, 114.26 8.42, 122.81 14.96 C131.37 21.49, 138.5 30.71, 143.12 40.08 C147.74 49.44, 150.5 60.65, 150.54 71.15 C150.59 81.65, 147.99 93.73, 143.39 103.09 C138.79 112.45, 131.44 120.96, 122.94 127.31 C114.43 133.67, 103.16 139.02, 92.37 141.21 C81.58 143.39, 68.88 142.68, 58.18 140.42 C47.48 138.16, 36.81 134.07, 28.19 127.66 C19.57 121.25, 11.27 111.5, 6.47 101.98 C1.66 92.46, -0.72 80.72, -0.66 70.53 C-0.59 60.33, 2.14 49.94, 6.84 40.83 C11.54 31.72, 18.83 22.32, 27.56 15.89 C36.3 9.46, 46.15 3.98, 59.25 2.22 C72.35 0.47, 96.66 3.45, 106.15 5.36 C115.65 7.28, 116.68 12.52, 116.23 13.71 M106.61 6.48 C116.11 9.72, 125.55 18.84, 132.79 26.77 C140.03 34.7, 147.35 44.07, 150.04 54.07 C152.73 64.07, 151.63 76.61, 148.92 86.76 C146.2 96.92, 140.31 106.83, 133.77 115.02 C127.22 123.2, 119.24 131.26, 109.65 135.87 C100.05 140.49, 87.21 142.55, 76.19 142.71 C65.17 142.88, 53.48 141.28, 43.51 136.86 C33.53 132.44, 23.47 124.22, 16.32 116.19 C9.18 108.16, 2.84 98.55, 0.62 88.7 C-1.6 78.84, 0.27 67.11, 3.02 57.05 C5.77 46.98, 10.64 36.64, 17.13 28.29 C23.62 19.94, 32.25 11.87, 41.96 6.94 C51.67 2, 64.62 -1.32, 75.4 -1.33 C86.19 -1.34, 101.32 5.51, 106.67 6.87 C112.02 8.23, 108.03 5.58, 107.51 6.83" stroke="#000000" stroke-width="1" fill="none"></path></g><g stroke-linecap="round" transform="translate(955.313013426567 381.0038490197138) rotate(0 75.32648674468584 71.41342249820877)"><path d="M61.53 1.05 C71.6 -1.69, 84.99 -0.85, 95.52 2.01 C106.04 4.86, 116.4 11.41, 124.69 18.2 C132.97 24.98, 141.03 33.43, 145.25 42.72 C149.47 52.02, 150.67 63.44, 150.01 73.98 C149.35 84.51, 146.22 96.65, 141.29 105.93 C136.36 115.2, 129.05 123.67, 120.45 129.63 C111.85 135.59, 100.7 140.05, 89.71 141.71 C78.73 143.37, 65.05 142.33, 54.53 139.58 C44.01 136.84, 34.73 131.93, 26.6 125.23 C18.47 118.53, 10.01 108.89, 5.74 99.41 C1.48 89.93, 0.46 78.75, 1.01 68.35 C1.57 57.96, 4.21 46.23, 9.09 37.05 C13.98 27.87, 19.75 19.52, 30.31 13.29 C40.87 7.05, 63.92 1.46, 72.45 -0.35 C80.98 -2.16, 81.66 1.31, 81.5 2.42 M92.45 2.71 C103 3.65, 115.04 8.87, 123.4 15.48 C131.75 22.09, 138.01 32.83, 142.58 42.36 C147.16 51.9, 150.97 62.54, 150.86 72.71 C150.76 82.87, 146.65 94.35, 141.95 103.34 C137.25 112.33, 130.99 120.35, 122.65 126.64 C114.32 132.92, 102.87 138.5, 91.93 141.03 C80.98 143.57, 67.89 144.5, 57 141.84 C46.11 139.17, 35.17 131.83, 26.59 125.06 C18.01 118.3, 9.96 110.22, 5.51 101.26 C1.07 92.29, -0.73 81.63, -0.08 71.25 C0.57 60.88, 4.37 48.6, 9.42 39.02 C14.48 29.44, 21.74 20.01, 30.25 13.77 C38.76 7.53, 50.14 3.58, 60.48 1.58 C70.82 -0.43, 86.74 1.29, 92.28 1.73 C97.82 2.16, 93.79 2.85, 93.72 4.2" stroke="#000000" stroke-width="1" fill="none"></path></g><g stroke-linecap="round" transform="translate(599.4415063809497 484.9173909351665) rotate(0 75.3264867446859 71.41342249820877)"><path d="M110.3 8.34 C119.98 11.99, 129.7 20.68, 136.16 28.87 C142.62 37.05, 147.2 47.46, 149.06 57.47 C150.92 67.48, 150.11 78.98, 147.32 88.92 C144.52 98.85, 139.07 109.17, 132.27 117.08 C125.48 124.99, 116.48 132.2, 106.53 136.37 C96.59 140.54, 83.68 142.26, 72.62 142.09 C61.57 141.92, 49.97 139.94, 40.22 135.37 C30.47 130.79, 20.61 122.94, 14.13 114.63 C7.65 106.31, 3.15 95.73, 1.32 85.49 C-0.5 75.25, 0.53 63.16, 3.2 53.18 C5.86 43.2, 10.39 33.57, 17.33 25.59 C24.26 17.61, 34.84 9.45, 44.8 5.27 C54.76 1.1, 64.86 -0.65, 77.11 0.55 C89.36 1.74, 110.49 9.45, 118.31 12.45 C126.13 15.45, 124.72 17.51, 124.01 18.56 M71.49 -0.83 C82.03 -2.34, 93.52 2.78, 103.67 6.54 C113.82 10.3, 125.02 14.38, 132.38 21.72 C139.75 29.06, 145.04 40.4, 147.88 50.58 C150.71 60.76, 151.18 72.42, 149.4 82.79 C147.62 93.17, 143.53 104.53, 137.2 112.84 C130.87 121.15, 120.8 127.52, 111.43 132.67 C102.06 137.83, 91.83 142.98, 80.98 143.78 C70.14 144.58, 56.57 141.74, 46.37 137.47 C36.17 133.2, 26.73 125.81, 19.77 118.16 C12.8 110.51, 7.76 101.27, 4.57 91.57 C1.37 81.87, -1.03 70.14, 0.6 59.95 C2.23 49.76, 8.08 38.82, 14.33 30.45 C20.58 22.08, 28.75 14.76, 38.1 9.74 C47.44 4.72, 65.21 1.77, 70.41 0.33 C75.6 -1.12, 68.98 0.13, 69.26 1.08" stroke="#000000" stroke-width="1" fill="none"></path></g><g stroke-linecap="round" transform="translate(603.571910011234 671.0052820266401) rotate(0 75.3264867446859 71.41342249820877)"><path d="M52.31 2.62 C61.95 -1.35, 75.6 -0.5, 86.47 1.16 C97.33 2.81, 108.6 6.67, 117.51 12.54 C126.42 18.42, 134.41 27.58, 139.94 36.41 C145.46 45.24, 149.78 55.28, 150.66 65.53 C151.53 75.79, 149.25 88.14, 145.2 97.96 C141.15 107.77, 134.35 117.61, 126.38 124.41 C118.4 131.22, 107.88 135.96, 97.36 138.78 C86.84 141.59, 73.94 142.68, 63.24 141.3 C52.54 139.91, 42.15 136.13, 33.16 130.47 C24.17 124.81, 14.67 116.37, 9.28 107.33 C3.9 98.29, 1.48 86.42, 0.87 76.21 C0.26 66.01, 1.66 55.7, 5.62 46.09 C9.58 36.48, 15.74 26.02, 24.62 18.56 C33.49 11.1, 51.99 4.2, 58.88 1.32 C65.76 -1.55, 65.76 0.05, 65.93 1.32 M80.63 1.27 C90.83 0.77, 100.57 3.15, 110.09 7.73 C119.6 12.31, 130.97 20.15, 137.72 28.75 C144.48 37.35, 148.93 49.12, 150.61 59.33 C152.29 69.53, 151.12 80.31, 147.82 89.98 C144.51 99.66, 138.16 109.3, 130.76 117.37 C123.37 125.44, 113.47 134.16, 103.46 138.4 C93.45 142.64, 81.22 143.58, 70.71 142.8 C60.2 142.03, 49.68 138.63, 40.39 133.73 C31.1 128.84, 21.26 121.59, 14.95 113.43 C8.64 105.28, 4.55 95.21, 2.51 84.81 C0.46 74.41, 0.02 60.95, 2.66 51.03 C5.3 41.12, 11.17 32.81, 18.33 25.31 C25.5 17.81, 35.72 10.48, 45.65 6.04 C55.58 1.61, 72.34 -0.67, 77.92 -1.3 C83.5 -1.94, 79.19 0.96, 79.13 2.24" stroke="#000000" stroke-width="1" fill="none"></path></g><g transform="translate(1482.816237692151 396.41727151792264) rotate(0 50 26.00000000000003)"><text x="50" y="18" font-family="Virgil, Segoe UI Emoji" font-size="20px" fill="#000000" text-anchor="middle" style="white-space: pre;" direction="ltr">Balance</text><text x="50" y="44" font-family="Virgil, Segoe UI Emoji" font-size="20px" fill="#000000" text-anchor="middle" style="white-space: pre;" direction="ltr">Component</text></g><g transform="translate(1119.770859139488 495.91774918689794) rotate(0 65 26)"><text x="65" y="18" font-family="Virgil, Segoe UI Emoji" font-size="20px" fill="#000000" text-anchor="middle" style="white-space: pre;" direction="ltr">Transactions</text><text x="65" y="44" font-family="Virgil, Segoe UI Emoji" font-size="20px" fill="#000000" text-anchor="middle" style="white-space: pre;" direction="ltr">Btn</text></g><g transform="translate(1307.3587502309617 502.0046849404208) rotate(0 63.5 26)"><text x="63.5" y="18" font-family="Virgil, Segoe UI Emoji" font-size="20px" fill="#000000" text-anchor="middle" style="white-space: pre;" direction="ltr">Pix/Transfer</text><text x="63.5" y="44" font-family="Virgil, Segoe UI Emoji" font-size="20px" fill="#000000" text-anchor="middle" style="white-space: pre;" direction="ltr">Btn</text></g><g transform="translate(1810.2091204244175 500.200409803091) rotate(0 50 52)"><text x="50" y="18" font-family="Virgil, Segoe UI Emoji" font-size="20px" fill="#000000" text-anchor="middle" style="white-space: pre;" direction="ltr">Recent</text><text x="50" y="44" font-family="Virgil, Segoe UI Emoji" font-size="20px" fill="#000000" text-anchor="middle" style="white-space: pre;" direction="ltr">Accounts</text><text x="50" y="70" font-family="Virgil, Segoe UI Emoji" font-size="20px" fill="#000000" text-anchor="middle" style="white-space: pre;" direction="ltr">List</text><text x="50" y="96" font-family="Virgil, Segoe UI Emoji" font-size="20px" fill="#000000" text-anchor="middle" style="white-space: pre;" direction="ltr">Component</text></g><g transform="translate(1838.426698642712 767.0712003452453) rotate(0 67 26)"><text x="67" y="18" font-family="Virgil, Segoe UI Emoji" font-size="20px" fill="#000000" text-anchor="middle" style="white-space: pre;" direction="ltr">New Transfer</text><text x="67" y="44" font-family="Virgil, Segoe UI Emoji" font-size="20px" fill="#000000" text-anchor="middle" style="white-space: pre;" direction="ltr">Btn</text></g><g transform="translate(1906.2893547540884 1137.6008074791655) rotate(0 31.5 26)"><text x="31.5" y="18" font-family="Virgil, Segoe UI Emoji" font-size="20px" fill="#000000" text-anchor="middle" style="white-space: pre;" direction="ltr">Cancel</text><text x="31.5" y="44" font-family="Virgil, Segoe UI Emoji" font-size="20px" fill="#000000" text-anchor="middle" style="white-space: pre;" direction="ltr">Btn</text></g><g transform="translate(996.1395001712526 439.1672715179226) rotate(0 34.5 13)"><text x="34.5" y="18" font-family="Virgil, Segoe UI Emoji" font-size="20px" fill="#000000" text-anchor="middle" style="white-space: pre;" direction="ltr">Logout</text></g><g transform="translate(624.7679931256354 530.3308134333753) rotate(0 50 26)"><text x="50" y="18" font-family="Virgil, Segoe UI Emoji" font-size="20px" fill="#000000" text-anchor="middle" style="white-space: pre;" direction="ltr">Credited</text><text x="50" y="44" font-family="Virgil, Segoe UI Emoji" font-size="20px" fill="#000000" text-anchor="middle" style="white-space: pre;" direction="ltr">Component</text></g><g transform="translate(628.8983967559196 716.4187045248489) rotate(0 50 26)"><text x="50" y="18" font-family="Virgil, Segoe UI Emoji" font-size="20px" fill="#000000" text-anchor="middle" style="white-space: pre;" direction="ltr">Debited</text><text x="50" y="44" font-family="Virgil, Segoe UI Emoji" font-size="20px" fill="#000000" text-anchor="middle" style="white-space: pre;" direction="ltr">Component</text></g><g stroke-linecap="round"><g transform="translate(1189.4448500637782 446.8739230584049) rotate(0 2.856538821906952 -39.817525613919315)"><path d="M0.54 -1.08 C1.62 -14.46, 5.35 -65.94, 6.34 -79.07 M-0.63 0.96 C0.34 -12.21, 4.53 -67.36, 5.64 -80.6" stroke="#000000" stroke-width="1" fill="none"></path></g></g><g stroke-linecap="round"><g transform="translate(1299.0106489651396 360.7865096359067) rotate(0 29.670220398550896 47.80208271549057)"><path d="M-0.34 -0.52 C9.42 15.21, 47.75 78.86, 57.56 95.03 M1.69 1.82 C11.88 17.62, 50.35 80.68, 59.68 96.12" stroke="#000000" stroke-width="1" fill="none"></path></g></g><g stroke-linecap="round"><g transform="translate(1459.4462830707043 396.0040878542015) rotate(0 -53.72819553615716 -29.616384309913997)"><path d="M1.04 -0.45 C-17.07 -10.37, -90.25 -49.26, -108.5 -58.79 M0.13 -1.73 C-17.62 -11.52, -88.57 -47.69, -106.25 -57.3" stroke="#000000" stroke-width="1" fill="none"></path></g></g><g stroke-linecap="round"><g transform="translate(939.0087382892375 456.65658367459787) rotate(0 -136.02107203022342 -126.91417776148009)"><path d="M0.1 -1.09 C-40.13 -4.59, -197.36 21.15, -242.38 -21.84 C-287.4 -64.84, -265.61 -219.78, -270.03 -259.07 M-1.3 0.95 C-41.58 -2.3, -198.29 22.71, -243.21 -20.47 C-288.13 -63.66, -266.05 -218.29, -270.81 -258.18" stroke="#000000" stroke-width="1" fill="none"></path></g><g transform="translate(939.0087382892375 456.65658367459787) rotate(0 -136.02107203022342 -126.91417776148009)"><path d="M-262.57 -229.54 C-263.26 -236.09, -266.26 -240.36, -269.75 -256.95 M-260.61 -230.2 C-265.28 -240.84, -267.68 -251.37, -270.42 -258.49" stroke="#000000" stroke-width="1" fill="none"></path></g><g transform="translate(939.0087382892375 456.65658367459787) rotate(0 -136.02107203022342 -126.91417776148009)"><path d="M-283.09 -229.69 C-279.33 -236.22, -277.88 -240.46, -269.75 -256.95 M-281.13 -230.34 C-277.89 -240.91, -272.39 -251.39, -270.42 -258.49" stroke="#000000" stroke-width="1" fill="none"></path></g></g><g stroke-linecap="round"><g transform="translate(1146.9376519818275 600.6825365068398) rotate(0 -72.00756012739294 24.285933397931046)"><path d="M0.19 0.47 C-7.93 7.34, -25.3 33.41, -49.24 41.48 C-73.17 49.55, -127.53 47.85, -143.41 48.9 M-1.17 -0.33 C-9.32 6.7, -25.86 35, -49.7 42.87 C-73.54 50.73, -128.33 45.91, -144.21 46.87" stroke="#000000" stroke-width="1" fill="none"></path></g><g transform="translate(1146.9376519818275 600.6825365068398) rotate(0 -72.00756012739294 24.285933397931046)"><path d="M-115.14 38.39 C-123.63 39.38, -129.43 40.05, -145.09 45.11 M-116.59 36.28 C-121.16 39.11, -127.11 40.25, -143.53 46.35" stroke="#000000" stroke-width="1" fill="none"></path></g><g transform="translate(1146.9376519818275 600.6825365068398) rotate(0 -72.00756012739294 24.285933397931046)"><path d="M-115.32 58.91 C-123.81 54.64, -129.56 50.04, -145.09 45.11 M-116.76 56.8 C-121.23 55.51, -127.15 52.52, -143.53 46.35" stroke="#000000" stroke-width="1" fill="none"></path></g></g><g stroke-linecap="round"><g transform="translate(807.9210860322519 671.8751172308437) rotate(0 -22.986756063773896 28.449270724366954)"><path d="M0.29 -0.62 C-7.32 8.87, -37.89 47.81, -45.88 57.52 M-1.01 1.66 C-8.68 10.78, -38.31 46.8, -46.27 55.81" stroke="#000000" stroke-width="1" fill="none"></path></g></g><g stroke-linecap="round"><g transform="translate(805.9645539090134 607.30955716397) rotate(0 -27.315305088983223 -20.084661975882966)"><path d="M-0.58 -0.11 C-9.84 -6.81, -46.74 -33.74, -55.94 -40.05 M1.31 -1.22 C-7.56 -7.8, -44.71 -32.58, -53.84 -39" stroke="#000000" stroke-width="1" fill="none"></path></g></g><g stroke-linecap="round"><g transform="translate(1367.4892732784901 619.0487499034016) rotate(0 87.41432098719827 33.89332325743271)"><path d="M0.52 -1.09 C5.12 9.25, -0.27 51.06, 28.5 62.47 C57.27 73.88, 148.97 66.35, 173.13 67.37 M-0.67 0.96 C4.24 10.92, 1.41 49.56, 30.77 60.78 C60.13 72.01, 151.74 67.39, 175.49 68.32" stroke="#000000" stroke-width="1" fill="none"></path></g><g transform="translate(1367.4892732784901 619.0487499034016) rotate(0 87.41432098719827 33.89332325743271)"><path d="M145.52 77.23 C159.2 72.99, 167.13 69.66, 176.37 68.69 M147.08 78.04 C155.98 75.82, 164.74 71.69, 174.93 67.58" stroke="#000000" stroke-width="1" fill="none"></path></g><g transform="translate(1367.4892732784901 619.0487499034016) rotate(0 87.41432098719827 33.89332325743271)"><path d="M145.47 56.71 C159.24 60.13, 167.19 64.45, 176.37 68.69 M147.03 57.52 C156.06 62.02, 164.83 64.62, 174.93 67.58" stroke="#000000" stroke-width="1" fill="none"></path></g></g><g stroke-linecap="round"><g transform="translate(1739.2303766938232 642.5271353822648) rotate(0 29.497436976816516 -25.486422444666175)"><path d="M-0.32 -0.14 C9.6 -8.79, 49.51 -42.43, 59.32 -50.83 M1.71 -1.26 C11.54 -9.19, 49.38 -41.31, 58.69 -49.27" stroke="#000000" stroke-width="1" fill="none"></path></g></g><g stroke-linecap="round"><g transform="translate(1741.1869088170617 738.397209420956) rotate(0 43.672245284345195 23.75294187209539)"><path d="M0.09 0.98 C14.93 8.6, 73.86 38.45, 88.66 46.01 M-1.31 0.46 C13.44 8.16, 73.05 39.24, 88.03 47.05" stroke="#000000" stroke-width="1" fill="none"></path></g></g><g stroke-linecap="round"><g transform="translate(2001.6727565827716 789.5677493757373) rotate(0 45.25811534416107 -0.1258380354041151)"><path d="M-0.24 1.14 C15.01 1.25, 75.85 0.6, 90.76 0.1 M1.83 0.69 C17.09 0.56, 75.95 -1.14, 90.35 -1.4" stroke="#000000" stroke-width="1" fill="none"></path></g><g transform="translate(2001.6727565827716 789.5677493757373) rotate(0 45.25811534416107 -0.1258380354041151)"><path d="M64.31 11.24 C70.98 6.19, 74.33 3.09, 90.06 0.48 M62.27 8.88 C69.33 7.4, 75.9 3.87, 90.95 -0.8" stroke="#000000" stroke-width="1" fill="none"></path></g><g transform="translate(2001.6727565827716 789.5677493757373) rotate(0 45.25811534416107 -0.1258380354041151)"><path d="M63.82 -9.27 C70.5 -9.5, 73.96 -7.79, 90.06 0.48 M61.77 -11.64 C68.78 -8.26, 75.47 -6.94, 90.95 -0.8" stroke="#000000" stroke-width="1" fill="none"></path></g></g><g stroke-linecap="round"><g transform="translate(2197.0588935316546 847.9630083223183) rotate(0 1.134071536167994 31.673690683760526)"><path d="M-0.87 0.13 C-0.72 10.62, 0.53 52.35, 0.95 62.64 M0.87 -0.85 C1.39 9.87, 3.16 53.59, 3.14 64.2" stroke="#000000" stroke-width="1" fill="none"></path></g><g transform="translate(2197.0588935316546 847.9630083223183) rotate(0 1.134071536167994 31.673690683760526)"><path d="M-7.55 34.58 C-4.49 44.28, -2.49 55.08, 5.09 65.54 M-7.03 36.99 C-3.63 47.41, -0.44 56.58, 2.77 64.96" stroke="#000000" stroke-width="1" fill="none"></path></g><g transform="translate(2197.0588935316546 847.9630083223183) rotate(0 1.134071536167994 31.673690683760526)"><path d="M12.96 34.11 C9.84 43.81, 5.65 54.74, 5.09 65.54 M13.49 36.52 C9.18 46.91, 4.67 56.27, 2.77 64.96" stroke="#000000" stroke-width="1" fill="none"></path></g></g><g stroke-linecap="round"><g transform="translate(2202.92848990137 1033.8335600299847) rotate(0 -1.1680412800615159 35.708145509152246)"><path d="M0.77 0.46 C0.3 12.02, -2.63 58.44, -3.11 70.29 M-0.28 -0.34 C-0.38 11.33, -0.55 60.06, -1 71.75" stroke="#000000" stroke-width="1" fill="none"></path></g><g transform="translate(2202.92848990137 1033.8335600299847) rotate(0 -1.1680412800615159 35.708145509152246)"><path d="M-9.98 41.46 C-8.05 50.95, -3.22 59.75, -1.12 71.99 M-11.18 44.37 C-9.09 49.47, -6.35 56.87, -1.2 72.24" stroke="#000000" stroke-width="1" fill="none"></path></g><g transform="translate(2202.92848990137 1033.8335600299847) rotate(0 -1.1680412800615159 35.708145509152246)"><path d="M10.54 41.83 C6.75 51.35, 5.87 60.04, -1.12 71.99 M9.33 44.74 C6.79 49.67, 4.89 56.98, -1.2 72.24" stroke="#000000" stroke-width="1" fill="none"></path></g></g><g stroke-linecap="round"><g transform="translate(2204.985223211852 1213.8345153679356) rotate(0 -1.3760314705782548 36.76578934678355)"><path d="M-0.51 -1.14 C-1.3 11.13, -3.71 60.79, -4.17 73.55 M1.42 0.88 C0.96 13.29, -1 62.54, -1.91 74.67" stroke="#000000" stroke-width="1" fill="none"></path></g><g transform="translate(2204.985223211852 1213.8345153679356) rotate(0 -1.3760314705782548 36.76578934678355)"><path d="M-12.51 44.55 C-8.95 55.97, -2.81 65.51, -0.48 73.95 M-10.98 45.2 C-6.39 57.05, -3.87 67.83, -2.33 73.81" stroke="#000000" stroke-width="1" fill="none"></path></g><g transform="translate(2204.985223211852 1213.8345153679356) rotate(0 -1.3760314705782548 36.76578934678355)"><path d="M7.98 45.67 C4.46 56.62, 3.52 65.77, -0.48 73.95 M9.51 46.32 C6.13 57.73, 0.68 68.08, -2.33 73.81" stroke="#000000" stroke-width="1" fill="none"></path></g></g><g stroke-linecap="round"><g transform="translate(2199.015425654893 1393.835470705886) rotate(0 0.6602462565153928 49.236558910254416)"><path d="M-0.35 0.99 C-0.31 17.08, 0.97 80.88, 0.94 96.94 M1.67 0.46 C1.57 16.65, 1.03 81.69, 0.49 98.01" stroke="#000000" stroke-width="1" fill="none"></path></g><g transform="translate(2199.015425654893 1393.835470705886) rotate(0 0.6602462565153928 49.236558910254416)"><path d="M-7.59 71.2 C-7.14 78.98, -2.98 90.66, -0.89 98.03 M-9.34 69.93 C-6.22 80.85, -1.67 91.14, 0.04 98.26" stroke="#000000" stroke-width="1" fill="none"></path></g><g transform="translate(2199.015425654893 1393.835470705886) rotate(0 0.6602462565153928 49.236558910254416)"><path d="M12.93 71.59 C6.02 79.17, 2.83 90.71, -0.89 98.03 M11.18 70.32 C6.72 80.91, 3.69 91.06, 0.04 98.26" stroke="#000000" stroke-width="1" fill="none"></path></g></g><g stroke-linecap="round"><g transform="translate(2089.4496267535314 1546.4449763184969) rotate(0 -226.05337738906815 -391.95377289461067)"><path d="M-0.89 0.85 C-68.63 -10.39, -330.92 66.8, -405.44 -66.25 C-479.96 -199.3, -440.93 -675.73, -447.99 -797.45 M0.84 0.25 C-67.1 -10.34, -331.17 67.74, -406.1 -65.09 C-481.03 -197.92, -441.85 -674.97, -448.73 -796.73" stroke="#000000" stroke-width="1" fill="none"></path></g><g transform="translate(2089.4496267535314 1546.4449763184969) rotate(0 -226.05337738906815 -391.95377289461067)"><path d="M-437.34 -767.54 C-444.07 -779.33, -448.63 -789.91, -449.2 -796.86 M-437.78 -768.39 C-442.94 -776.45, -445.45 -785.4, -449.63 -796.46" stroke="#000000" stroke-width="1" fill="none"></path></g><g transform="translate(2089.4496267535314 1546.4449763184969) rotate(0 -226.05337738906815 -391.95377289461067)"><path d="M-457.86 -767.75 C-456.67 -779.31, -453.33 -789.81, -449.2 -796.86 M-458.3 -768.6 C-457.12 -776.64, -453.28 -785.52, -449.63 -796.46" stroke="#000000" stroke-width="1" fill="none"></path></g></g><g stroke-linecap="round"><g transform="translate(2105.2376712978735 973.1667926707712) rotate(0 -55.395174515741815 68.49560084309951)"><path d="M1.18 -0.98 C-17.5 21.71, -93.41 113.33, -111.97 136.36 M0.34 1.12 C-17.98 24.02, -91.33 115.6, -109.81 137.97" stroke="#000000" stroke-width="1" fill="none"></path></g></g><g stroke-linecap="round"><g transform="translate(2105.2376712978735 1167.753426716306) rotate(0 -43.021016112990765 -0.7503466668525789)"><path d="M-0.64 -0.44 C-14.86 -0.37, -71.8 0.14, -86.08 0.34 M1.23 -1.72 C-13.13 -2.02, -72.49 -1.7, -87.27 -1.6" stroke="#000000" stroke-width="1" fill="none"></path></g></g><g stroke-linecap="round"><g transform="translate(2103.2918049574178 1346.7731300381984) rotate(0 -58.95096425368672 -59.26416056216908)"><path d="M-0.5 0.64 C-20.14 -19.21, -98.63 -99.45, -118.5 -119.17 M1.44 -0.06 C-18.28 -19.76, -99.54 -97.98, -119.34 -117.88" stroke="#000000" stroke-width="1" fill="none"></path></g></g><g stroke-linecap="round"><g transform="translate(1852.2750470386777 1165.8075603758507) rotate(0 -102.66546438491764 1.6858482937335566)"><path d="M-0.96 -0.24 C-35.19 0.3, -170.97 2.71, -204.84 3.47 M0.74 -1.41 C-33.75 -0.73, -171.79 4.19, -206.07 4.78" stroke="#000000" stroke-width="1" fill="none"></path></g></g></svg>